<?xml version="1.0" encoding="utf-8"?>
<!-- Generator: Adobe Illustrator 15.0.0, SVG Export Plug-In . SVG Version: 6.00 Build 0)  -->
<!DOCTYPE svg PUBLIC "-//W3C//DTD SVG 1.1//EN" "http://www.w3.org/Graphics/SVG/1.1/DTD/svg11.dtd">
<svg version="1.1" xmlns="http://www.w3.org/2000/svg" xmlns:xlink="http://www.w3.org/1999/xlink" x="0px" y="0px"
	 width="438.333px" height="65px" viewBox="0 0 438.333 65" enable-background="new 0 0 438.333 65" xml:space="preserve">
<g id="Clock_logo-mark" display="none">
	<path id="Clock_face_3_" display="inline" fill="#BCBEC0" d="M-13.342,27.84c0-0.133,0.009-0.265,0.009-0.398
		c0-29.331-23.849-53.109-53.271-53.109c-29.42,0-53.271,23.778-53.271,53.109c0,0.133,0.009,0.265,0.009,0.398H-13.342z"/>
	<path id="Clock_face_1_" display="inline" fill="#BCBEC0" d="M-119.866,27.097c0,0.133-0.009,0.265-0.009,0.398
		c0,29.331,23.851,53.109,53.271,53.109c29.422,0,53.271-23.778,53.271-53.109c0-0.133-0.009-0.265-0.009-0.398H-119.866z"/>
	<g id="Clock_ticks" display="inline">
		<rect x="-67.01" y="-14.424" fill="#FFFFFF" stroke="#E6E7E8" stroke-miterlimit="10" width="0.801" height="9.304"/>
		
			<rect x="-48.322" y="-9.418" transform="matrix(0.8657 0.5006 -0.5006 0.8657 -8.8227 23.3497)" fill="#FFFFFF" stroke="#E6E7E8" stroke-miterlimit="10" width="0.8" height="9.304"/>
		
			<rect x="-34.643" y="4.263" transform="matrix(-0.5003 -0.8659 0.8659 -0.5003 -59.0916 -16.2738)" fill="#FFFFFF" stroke="#E6E7E8" stroke-miterlimit="10" width="0.801" height="9.305"/>
		
			<rect x="-34.643" y="4.263" transform="matrix(-0.5003 -0.8659 0.8659 -0.5003 -59.0916 -16.2738)" fill="#FFFFFF" stroke="#E6E7E8" stroke-miterlimit="10" width="0.801" height="9.305"/>
		<rect x="-108.635" y="27.203" fill="#FFFFFF" stroke="#E6E7E8" stroke-miterlimit="10" width="9.304" height="0.559"/>
		<rect x="-33.887" y="27.203" fill="#FFFFFF" stroke="#E6E7E8" stroke-miterlimit="10" width="9.304" height="0.597"/>
		
			<rect x="-99.377" y="4.263" transform="matrix(0.501 -0.8655 0.8655 0.501 -57.1058 -81.2105)" fill="#FFFFFF" stroke="#E6E7E8" stroke-miterlimit="10" width="0.801" height="9.303"/>
		
			<rect x="-85.697" y="-9.416" transform="matrix(0.8664 -0.4994 0.4994 0.8664 -9.0163 -43.2295)" fill="#FFFFFF" stroke="#E6E7E8" stroke-miterlimit="10" width="0.801" height="9.303"/>
		<rect x="-66.999" y="60.058" fill="#FFFFFF" stroke="#E6E7E8" stroke-miterlimit="10" width="0.8" height="9.303"/>
		
			<rect x="-85.687" y="55.05" transform="matrix(-0.8659 -0.5003 0.5003 -0.8659 -189 68.7306)" fill="#FFFFFF" stroke="#E6E7E8" stroke-miterlimit="10" width="0.801" height="9.304"/>
		
			<rect x="-99.367" y="41.37" transform="matrix(0.4996 0.8662 -0.8662 0.4996 -9.6553 108.7578)" fill="#FFFFFF" stroke="#E6E7E8" stroke-miterlimit="10" width="0.8" height="9.304"/>
		
			<rect x="-99.367" y="41.37" transform="matrix(0.4996 0.8662 -0.8662 0.4996 -9.6553 108.7578)" fill="#FFFFFF" stroke="#E6E7E8" stroke-miterlimit="10" width="0.8" height="9.304"/>
		<rect x="-33.876" y="27.176" fill="#FFFFFF" stroke="#E6E7E8" stroke-miterlimit="10" width="9.303" height="0.559"/>
		<rect x="-108.626" y="27.137" fill="#FFFFFF" stroke="#E6E7E8" stroke-miterlimit="10" width="9.303" height="0.598"/>
		
			<rect x="-34.633" y="41.37" transform="matrix(-0.5005 0.8657 -0.8657 -0.5005 -11.5252 98.6923)" fill="#FFFFFF" stroke="#E6E7E8" stroke-miterlimit="10" width="0.801" height="9.303"/>
		
			<rect x="-48.312" y="55.049" transform="matrix(-0.8662 0.4996 -0.4996 -0.8662 -59.5871 135.355)" fill="#FFFFFF" stroke="#E6E7E8" stroke-miterlimit="10" width="0.8" height="9.304"/>
	</g>
	<g id="Layer_17" display="inline">
		<rect x="-67.333" y="-15.917" fill="#FFFFFF" width="1.833" height="42.353"/>
		
			<rect x="-51.502" y="6.346" transform="matrix(0.2073 0.9783 -0.9783 0.2073 -17.804 67.5539)" fill="#FFFFFF" width="1.833" height="32.89"/>
	</g>
	<circle display="inline" fill="#FFFFFF" cx="-66.417" cy="25.962" r="2.204"/>
</g>
<g id="Hour-glass_1_" display="none">
	<linearGradient id="Horizon_line_3_" gradientUnits="userSpaceOnUse" x1="1.0171" y1="315.2798" x2="66.5425" y2="315.2798">
		<stop  offset="0" style="stop-color:#FFFFFF;stop-opacity:0"/>
		<stop  offset="0.0897" style="stop-color:#EDEEEE;stop-opacity:0.1758"/>
		<stop  offset="0.2536" style="stop-color:#D2D4D5;stop-opacity:0.4969"/>
		<stop  offset="0.3991" style="stop-color:#C2C4C5;stop-opacity:0.782"/>
		<stop  offset="0.5104" style="stop-color:#BCBEC0"/>
		<stop  offset="0.6171" style="stop-color:#C2C4C5;stop-opacity:0.782"/>
		<stop  offset="0.7567" style="stop-color:#D2D4D5;stop-opacity:0.4969"/>
		<stop  offset="0.9139" style="stop-color:#EDEEEE;stop-opacity:0.1758"/>
		<stop  offset="1" style="stop-color:#FFFFFF;stop-opacity:0"/>
	</linearGradient>
	<rect id="Horizon_line_1_" x="1.017" y="314.34" display="inline" fill="url(#Horizon_line_3_)" width="65.525" height="1.878"/>
	<path display="inline" fill="#A7A9AC" d="M34.933,248.644c-0.998-9.519,5.02-13.793,5.02-13.793
		c37.542-23.922,31.626-53.879,31.626-53.879l-29.543-10.753l-0.162-0.06L12.33,159.407c0,0-23.787,19.146-10.407,61.602
		c0,0,1.863,7.144-5.02,13.793c-6.882,6.647-30.012,16.994-35.875,52.161l33.849,12.318l0.161,0.06l33.849,12.321
		C47,280.952,35.932,258.161,34.933,248.644z"/>
	<path display="inline" fill="#BCBEC0" d="M30.18,246.913c-0.014-9.158,5.019-13.792,5.019-13.792
		c31.176-26.24,28.974-54.847,28.974-54.847l-22.158-8.063l-0.121-0.044l-22.158-8.064c0,0-20.075,20.497-13.059,60.639
		c0,0,0.877,6.783-5.021,13.79c-5.896,7.008-24.752,18.906-32.149,53.52l25.388,9.239l0.123,0.047l25.385,9.238
		C36.986,277.308,30.193,256.074,30.18,246.913z"/>
	<path display="inline" fill="#D1D3D4" d="M26.615,245.616c0.724-8.891,5.018-13.792,5.018-13.792
		c26.402-27.978,26.985-55.57,26.985-55.57L42,170.207l-0.092-0.035l-16.619-6.047c0,0-17.289,21.509-15.047,59.913
		c0,0,0.137,6.516-5.021,13.791c-5.158,7.278-20.808,20.348-29.352,54.538l19.042,6.93l0.092,0.034l19.039,6.928
		C29.477,274.576,25.887,254.504,26.615,245.616z"/>
	<path display="inline" fill="#E6E7E8" d="M23.939,244.642c1.28-8.688,5.02-13.792,5.02-13.792
		c22.821-29.28,25.492-56.112,25.492-56.112l-12.461-4.537l-0.071-0.024l-12.463-4.537c0,0-15.201,22.272-16.54,59.371
		c0,0-0.416,6.314-5.02,13.792c-4.604,7.48-17.849,21.423-27.254,55.301l14.279,5.197l0.07,0.023l14.28,5.198
		C23.843,272.525,22.661,253.33,23.939,244.642z"/>
	<path display="inline" fill="#FFFFFF" d="M21.935,243.913c1.694-8.538,5.02-13.792,5.02-13.792
		c20.136-30.257,24.373-56.519,24.373-56.519l-9.349-3.404l-0.05-0.018l-9.348-3.403c0,0-13.636,22.841-17.659,58.963
		c0,0-0.832,6.163-5.021,13.792c-4.187,7.631-15.629,22.231-25.679,55.873l10.71,3.898l0.051,0.019l10.71,3.899
		C19.618,270.986,20.24,252.451,21.935,243.913z"/>
	<path display="inline" fill="#D1D3D4" d="M32.352,247.704c-0.463-9.323,5.021-13.792,5.021-13.792
		c34.086-25.181,30.185-54.404,30.185-54.404l-25.533-9.293l-0.14-0.051l-25.533-9.294c0,0-21.772,19.88-11.848,61.081
		c0,0,1.328,6.946-5.019,13.789c-6.349,6.845-27.156,18.035-33.853,52.901l29.256,10.647l0.139,0.051l29.254,10.646
		C41.564,278.976,32.816,257.029,32.352,247.704z"/>
	<path display="inline" fill="#FFFFFF" d="M25.113,246.032c11.408,22.57-7.741,44.962-7.741,44.962l-17.139-6.236l-0.27-0.099
		l-17.137-6.239c0,0-0.275-29.46,22.973-39.418c0,0,7.636-1.094,10.193-7.031c0.956-2.224,1.203-5.123,0.07-8.897
		c-2.09-6.97-9.867-17.74,2.538-44.908l17.77,6.469l0.27,0.097l17.772,6.469c-7.961,28.785-20.843,32.037-26.923,36.033
		c-3.363,2.208-5.038,4.641-5.708,7.003C20.044,240.372,25.113,246.032,25.113,246.032z"/>
	
		<rect x="-45.962" y="284.297" transform="matrix(0.9397 0.342 -0.342 0.9397 99.7364 18.4303)" display="inline" fill="#939598" width="87.133" height="15.482"/>
	
		<rect x="-4.26" y="169.724" transform="matrix(0.9397 0.342 -0.342 0.9397 63.0687 -2.7408)" display="inline" fill="#939598" width="87.132" height="15.481"/>
	
		<rect x="-31.546" y="284.298" transform="matrix(0.9397 0.342 -0.342 0.9397 99.7412 18.4319)" display="inline" fill="#939598" width="58.303" height="15.482"/>
	
		<rect x="10.155" y="169.722" transform="matrix(0.9397 0.342 -0.342 0.9397 63.0692 -2.7408)" display="inline" fill="#939598" width="58.302" height="15.483"/>
	
		<rect x="-24.259" y="284.297" transform="matrix(0.9397 0.342 -0.342 0.9397 99.7248 18.4262)" display="inline" fill="#939598" width="43.726" height="15.482"/>
	
		<rect x="17.443" y="169.721" transform="matrix(0.9397 0.342 -0.342 0.9397 63.0668 -2.7413)" display="inline" fill="#939598" width="43.727" height="15.483"/>
	
		<rect x="-32.538" y="281.872" transform="matrix(0.9397 0.342 -0.342 0.9397 98.5027 20.5603)" display="inline" fill="#939598" width="46.969" height="15.485"/>
	
		<rect x="9.164" y="167.299" transform="matrix(0.9397 0.342 -0.342 0.9397 61.8345 -0.6102)" display="inline" fill="#939598" width="46.968" height="15.482"/>
	
		<rect x="-23.218" y="167.567" transform="matrix(0.9397 0.3421 -0.3421 0.9397 74.8614 20.3224)" display="inline" fill="#939598" width="6.064" height="109.67"/>
	
		<rect x="-19.726" y="168.184" transform="matrix(0.9396 0.3423 -0.3423 0.9396 74.6954 19.612)" display="inline" fill="#A7A9AC" width="3.032" height="106.445"/>
	
		<ellipse transform="matrix(0.9397 0.3419 -0.3419 0.9397 74.3276 20.0188)" display="inline" fill="#939598" cx="-19.625" cy="220.862" rx="5.376" ry="7.499"/>
	<path display="inline" fill="#A7A9AC" d="M-14.574,222.7c-1.416,3.894-4.826,6.225-7.616,5.208
		c-2.791-1.016,2.34-15.108,5.129-14.093C-14.271,214.831-13.156,218.808-14.574,222.7z"/>
	
		<ellipse transform="matrix(-0.9397 -0.342 0.342 -0.9397 24.6769 501.5288)" display="inline" fill="#939598" cx="56.554" cy="248.589" rx="5.375" ry="7.5"/>
	<path display="inline" fill="#A7A9AC" d="M51.503,246.75c-1.417,3.893-0.302,7.87,2.487,8.887c2.79,1.015,7.92-13.08,5.129-14.096
		S52.919,242.858,51.503,246.75z"/>
	
		<rect x="-3.634" y="171.434" transform="matrix(0.9397 0.342 -0.342 0.9397 60.6178 11.0222)" display="inline" fill="#A7A9AC" width="5.376" height="11.935"/>
	
		<rect x="66.473" y="196.587" transform="matrix(0.9396 0.3422 -0.3422 0.9396 73.4787 -11.4386)" display="inline" fill="#A7A9AC" width="5.377" height="11.935"/>
	
		<rect x="33.15" y="285.398" transform="matrix(0.9397 0.342 -0.342 0.9397 101.8142 5.3141)" display="inline" fill="#A7A9AC" width="5.376" height="11.936"/>
	
		<rect x="-35.637" y="260.362" transform="matrix(0.9395 0.3425 -0.3425 0.9395 89.218 27.3892)" display="inline" fill="#A7A9AC" width="5.378" height="11.934"/>
	
		<rect x="52.96" y="195.294" transform="matrix(-0.9397 -0.3421 0.3421 -0.9397 23.0331 504.3224)" display="inline" fill="#939598" width="6.066" height="109.672"/>
	
		<rect x="53.606" y="194.874" transform="matrix(-0.9398 -0.3416 0.3416 -0.9398 22.1652 500.0961)" display="inline" fill="#A7A9AC" width="3.03" height="106.444"/>
</g>
<g id="Word-mark_1_" display="none">
	<g display="inline">
		<path fill="#D1D3D4" d="M79.467,220.718v-38.255h7.073v37.773c0,8.117,7.394,14.627,14.948,14.627
			c7.635,0,15.672-6.51,15.672-14.627v-37.773h6.831v38.255c0,12.538-10.126,20.976-22.503,20.976S79.467,233.255,79.467,220.718z"
			/>
		<path fill="#D1D3D4" d="M132.349,241.131v-58.668h7.635l30.62,49.265v-49.265h6.671v58.668h-8.117l-30.138-48.542v48.542H132.349z
			"/>
		<path fill="#D1D3D4" d="M228.387,232.372c-4.581,6.831-12.216,9.322-19.69,9.322c-12.537,0-24.673-7.475-24.673-29.897
			c0-20.333,12.136-30.058,24.673-30.058c9.805,0,15.351,3.456,19.61,10.287l-5.144,4.5c-2.813-4.902-7.715-8.358-14.306-8.358
			c-12.618,0-18.002,11.493-18.002,23.628c0,12.538,5.305,23.467,17.842,23.467c6.751,0,11.814-3.134,14.547-7.956L228.387,232.372z
			"/>
		<path fill="#939598" d="M278.536,232.372c-4.581,6.831-12.216,9.322-19.69,9.322c-12.537,0-24.673-7.475-24.673-29.897
			c0-20.333,12.136-30.058,24.673-30.058c9.805,0,15.351,3.456,19.61,10.287l-5.144,4.5c-2.813-4.902-7.715-8.358-14.306-8.358
			c-12.618,0-18.002,11.493-18.002,23.628c0,12.538,5.305,23.467,17.842,23.467c6.751,0,11.814-3.134,14.547-7.956L278.536,232.372z
			"/>
		<path fill="#939598" d="M303.529,241.131v-52.239h-18.967v-6.429h44.766v6.429h-18.967v52.239H303.529z"/>
		<path fill="#939598" d="M336.801,241.131v-58.668h6.831v58.668H336.801z"/>
	</g>
	<g id="Layer_11" display="inline">
	</g>
	<g display="inline">
		<path fill="#939598" d="M94.839,284.427c-1.1,1.225-2.999,1.774-4.799,1.774c-4.174,0-6.249-2.649-6.249-7.173
			c0-4.35,2.85-7.148,6.249-7.148c1.8,0,3.549,0.75,4.699,2.05l-1.5,1.374c-0.625-0.774-1.725-1.55-3.149-1.55
			c-2.625,0-4.224,2.2-4.224,5.249c0,3.175,1.575,5.374,4.174,5.374c1.45,0,2.75-0.625,3.349-1.399L94.839,284.427z"/>
		<path fill="#939598" d="M96.892,272.13h1.699l0.375,3.299c0.575-1.175,2.049-3.549,3.599-3.549c0.825,0,1.45,0.1,2.024,0.274
			v1.925c0,0-0.85-0.225-1.7-0.225c-1.35,0-2.849,2.399-3.924,4.549v7.623h-2.074V272.13z"/>
		<path fill="#939598" d="M106.517,269.031v-2.074h2.25v2.1h-2.2L106.517,269.031z M106.617,286.027V272.13h2.074v13.896H106.617z"
			/>
		<path fill="#939598" d="M119.314,285.876c-0.475,0.101-1.425,0.325-2.699,0.325c-2.674,0-4.049-1.55-4.049-4.424v-7.823h-1.5
			v-1.824h1.5v-3.6h2.075v3.6h3.874v1.824h-3.874v7.648c0,1.925,0.875,2.749,2.149,2.749c1.075,0,1.924-0.175,2.524-0.399V285.876z"
			/>
		<path fill="#939598" d="M122.341,269.031v-2.074h2.25v2.1h-2.2L122.341,269.031z M122.441,286.027V272.13h2.074v13.896H122.441z"
			/>
		<path fill="#939598" d="M137.863,284.427c-1.1,1.225-2.999,1.774-4.799,1.774c-4.174,0-6.249-2.649-6.249-7.173
			c0-4.35,2.85-7.148,6.249-7.148c1.8,0,3.549,0.75,4.699,2.05l-1.5,1.374c-0.625-0.774-1.725-1.55-3.149-1.55
			c-2.625,0-4.224,2.2-4.224,5.249c0,3.175,1.575,5.374,4.174,5.374c1.45,0,2.75-0.625,3.349-1.399L137.863,284.427z"/>
		<path fill="#939598" d="M151.613,284.852l-1.299,1.399c-0.75-0.399-1.225-1.175-1.5-1.899c-1.025,0.975-2.625,1.85-4.149,1.85
			c-2.949,0-5.049-1.149-5.049-3.599c0-2.2,1.65-4.199,5.174-4.274c1.05-0.024,2.725,0,3.749,0.05c0-0.874,0.025-1.55,0.025-1.649
			c-0.05-1.949-1.2-2.949-2.475-2.949c-1.825,0-3.824,0.675-5.324,1.649v-2.049c1.5-0.851,3.324-1.5,5.349-1.5
			c2.524,0,4.399,1.699,4.399,4.948v5.549C150.513,283.552,150.963,284.377,151.613,284.852z M148.589,282.728
			c-0.05-0.875-0.075-1.899-0.075-2.875c-0.775-0.024-2.174-0.024-3.649,0.025c-2.5,0.075-3.224,1.475-3.224,2.524
			c0,1.574,1.2,2.074,3.124,2.074C145.964,284.477,147.439,283.727,148.589,282.728z"/>
		<path fill="#939598" d="M156.615,286.027c-1.949,0-3.074-1.399-3.074-3.574v-15.921h2.075v15.796c0,1.075,0.525,1.875,1.399,1.875
			h0.75v1.824H156.615z"/>
		<path fill="#939598" d="M173.714,285.876c-0.475,0.101-1.425,0.325-2.699,0.325c-2.674,0-4.049-1.55-4.049-4.424v-7.823h-1.5
			v-1.824h1.5v-3.6h2.075v3.6h3.874v1.824h-3.874v7.648c0,1.925,0.875,2.749,2.149,2.749c1.075,0,1.924-0.175,2.524-0.399V285.876z"
			/>
		<path fill="#939598" d="M175.74,269.031v-2.074h2.25v2.1h-2.2L175.74,269.031z M175.84,286.027V272.13h2.074v13.896H175.84z"/>
		<path fill="#939598" d="M182.964,275.655v10.372h-2.074V272.13h1.799l0.25,1.6c1.2-1.149,2.824-1.875,4.399-1.875
			c2.024,0,3.299,0.8,4.049,2.125c1.2-1.274,2.949-2.125,4.624-2.125c3.774,0,4.949,2.774,4.949,6.573v7.599h-2.075v-7.623
			c0-2.8-1.049-4.699-2.924-4.699c-1.55,0-3,0.625-4.024,1.625c0.25,0.899,0.35,1.949,0.35,3.099v7.599h-2.075v-7.623
			c0-2.8-1.049-4.699-2.924-4.699C185.589,273.705,183.989,274.48,182.964,275.655z"/>
		<path fill="#939598" d="M204.815,279.229c0.05,3.799,1.674,5.099,4.374,5.099c2,0,3.574-0.45,4.849-1.175v2.074
			c-1.25,0.55-2.999,0.975-4.899,0.975c-3.774,0-6.374-2.225-6.374-7.173c0-4.499,2.7-7.148,5.974-7.148
			c3.274,0,5.849,2.475,5.849,6.398v0.95H204.815z M204.94,277.654h7.673c-0.125-1.925-1.824-3.949-3.874-3.949
			C206.639,273.705,205.315,275.479,204.94,277.654z"/>
		<path fill="#939598" d="M222.84,269.031v-2.074h2.25v2.1h-2.2L222.84,269.031z M222.94,286.027V272.13h2.074v13.896H222.94z"/>
		<path fill="#939598" d="M230.539,273.73c1.2-1.149,2.824-1.875,4.399-1.875c3.774,0,4.949,2.774,4.949,6.573v7.599h-2.075v-7.623
			c0-2.8-1.049-4.699-2.924-4.699c-1.7,0-3.299,0.775-4.324,1.95v10.372h-2.074V272.13h1.799L230.539,273.73z"/>
		<path fill="#939598" d="M249.512,285.876c-0.475,0.101-1.425,0.325-2.699,0.325c-2.674,0-4.049-1.55-4.049-4.424v-7.823h-1.5
			v-1.824h1.5v-3.6h2.075v3.6h3.874v1.824h-3.874v7.648c0,1.925,0.875,2.749,2.149,2.749c1.075,0,1.924-0.175,2.524-0.399V285.876z"
			/>
		<path fill="#939598" d="M252.339,279.229c0.05,3.799,1.674,5.099,4.374,5.099c2,0,3.574-0.45,4.849-1.175v2.074
			c-1.25,0.55-3,0.975-4.899,0.975c-3.774,0-6.374-2.225-6.374-7.173c0-4.499,2.7-7.148,5.974-7.148
			c3.274,0,5.849,2.475,5.849,6.398v0.95H252.339z M252.464,277.654h7.673c-0.125-1.925-1.824-3.949-3.874-3.949
			C254.164,273.705,252.839,275.479,252.464,277.654z"/>
		<path fill="#939598" d="M264.739,272.13h1.699l0.375,3.299c0.575-1.175,2.049-3.549,3.599-3.549c0.825,0,1.45,0.1,2.024,0.274
			v1.925c0,0-0.85-0.225-1.7-0.225c-1.35,0-2.849,2.399-3.924,4.549v7.623h-2.074V272.13z"/>
		<path fill="#939598" d="M273.739,272.13h2.199l4.124,11.122l4.199-11.122h1.975l-5.299,13.896h-1.95L273.739,272.13z"/>
		<path fill="#939598" d="M288.962,279.229c0.051,3.799,1.675,5.099,4.374,5.099c2,0,3.574-0.45,4.85-1.175v2.074
			c-1.25,0.55-3,0.975-4.899,0.975c-3.774,0-6.373-2.225-6.373-7.173c0-4.499,2.699-7.148,5.974-7.148
			c3.273,0,5.849,2.475,5.849,6.398v0.95H288.962z M289.087,277.654h7.674c-0.125-1.925-1.825-3.949-3.874-3.949
			C290.788,273.705,289.462,275.479,289.087,277.654z"/>
		<path fill="#939598" d="M303.412,273.73c1.2-1.149,2.825-1.875,4.399-1.875c3.774,0,4.949,2.774,4.949,6.573v7.599h-2.075v-7.623
			c0-2.8-1.05-4.699-2.924-4.699c-1.7,0-3.3,0.775-4.324,1.95v10.372h-2.074V272.13h1.8L303.412,273.73z"/>
		<path fill="#939598" d="M322.385,285.876c-0.475,0.101-1.424,0.325-2.699,0.325c-2.674,0-4.049-1.55-4.049-4.424v-7.823h-1.5
			v-1.824h1.5v-3.6h2.074v3.6h3.874v1.824h-3.874v7.648c0,1.925,0.875,2.749,2.149,2.749c1.075,0,1.925-0.175,2.524-0.399V285.876z"
			/>
		<path fill="#939598" d="M325.414,269.031v-2.074h2.249v2.1h-2.199L325.414,269.031z M325.513,286.027V272.13h2.074v13.896H325.513
			z"/>
		<path fill="#939598" d="M341.91,279.104c0,4.748-2.749,7.098-6.023,7.098c-3.249,0-5.998-2.35-5.998-7.098
			c0-4.499,2.724-7.224,5.998-7.224S341.91,274.605,341.91,279.104z M339.81,279.104c0-2.7-1.35-5.374-3.898-5.374
			c-2.574,0-3.924,2.6-3.924,5.349c0,2.799,1.35,5.323,3.898,5.323C338.436,284.402,339.81,281.978,339.81,279.104z"/>
		<path fill="#939598" d="M346.187,273.73c1.2-1.149,2.825-1.875,4.399-1.875c3.774,0,4.949,2.774,4.949,6.573v7.599h-2.075v-7.623
			c0-2.8-1.05-4.699-2.924-4.699c-1.7,0-3.3,0.775-4.324,1.95v10.372h-2.074V272.13h1.8L346.187,273.73z"/>
		<path fill="#939598" d="M84.542,298.683v-2.074h2.25v2.1h-2.2L84.542,298.683z M84.642,315.679v-13.896h2.074v13.896H84.642z"/>
		<path fill="#939598" d="M91.741,303.382c1.2-1.149,2.824-1.875,4.399-1.875c3.774,0,4.949,2.774,4.949,6.573v7.599h-2.075v-7.623
			c0-2.8-1.049-4.699-2.924-4.699c-1.7,0-3.299,0.775-4.324,1.95v10.372h-2.074v-13.896h1.799L91.741,303.382z"/>
		<path fill="#939598" d="M112.166,303.382c1.2-1.149,2.824-1.875,4.399-1.875c3.774,0,4.949,2.774,4.949,6.573v7.599h-2.075v-7.623
			c0-2.8-1.049-4.699-2.924-4.699c-1.7,0-3.299,0.775-4.324,1.95v10.372h-2.074v-13.896h1.799L112.166,303.382z"/>
		<path fill="#939598" d="M135.339,308.756c0,4.748-2.75,7.098-6.024,7.098c-3.249,0-5.999-2.35-5.999-7.098
			c0-4.499,2.725-7.224,5.999-7.224C132.589,301.533,135.339,304.257,135.339,308.756z M133.239,308.756
			c0-2.7-1.35-5.374-3.899-5.374c-2.575,0-3.924,2.6-3.924,5.349c0,2.799,1.35,5.323,3.899,5.323
			C131.865,314.054,133.239,311.63,133.239,308.756z"/>
		<path fill="#939598" d="M138.566,301.783h1.7l0.375,3.299c0.575-1.175,2.049-3.549,3.599-3.549c0.825,0,1.45,0.1,2.024,0.274
			v1.925c0,0-0.85-0.225-1.699-0.225c-1.35,0-2.85,2.399-3.924,4.549v7.623h-2.075V301.783z"/>
		<path fill="#939598" d="M156.764,315.529c-0.475,0.101-1.425,0.325-2.699,0.325c-2.674,0-4.049-1.55-4.049-4.424v-7.823h-1.5
			v-1.824h1.5v-3.6h2.075v3.6h3.874v1.824h-3.874v7.648c0,1.925,0.875,2.749,2.149,2.749c1.075,0,1.924-0.175,2.524-0.399V315.529z"
			/>
		<path fill="#939598" d="M161.865,305.307v10.372h-2.075v-19.495h2.075v7.173c1.174-1.124,2.824-1.85,4.374-1.85
			c3.774,0,4.949,2.774,4.949,6.573v7.599h-2.075v-7.623c0-2.8-1.05-4.699-2.924-4.699
			C164.489,303.357,162.89,304.132,161.865,305.307z"/>
		<path fill="#939598" d="M192.588,314.08c-1.1,1.225-2.999,1.774-4.799,1.774c-4.174,0-6.249-2.649-6.249-7.173
			c0-4.35,2.85-7.148,6.249-7.148c1.8,0,3.549,0.75,4.699,2.05l-1.5,1.374c-0.625-0.774-1.725-1.55-3.149-1.55
			c-2.625,0-4.224,2.2-4.224,5.249c0,3.175,1.575,5.374,4.174,5.374c1.45,0,2.75-0.625,3.349-1.399L192.588,314.08z"/>
		<path fill="#939598" d="M206.837,314.504l-1.299,1.399c-0.75-0.399-1.225-1.175-1.5-1.899c-1.025,0.975-2.625,1.85-4.149,1.85
			c-2.949,0-5.049-1.149-5.049-3.599c0-2.2,1.65-4.199,5.174-4.274c1.05-0.024,2.725,0,3.749,0.05c0-0.874,0.025-1.55,0.025-1.649
			c-0.05-1.949-1.2-2.949-2.475-2.949c-1.825,0-3.824,0.675-5.324,1.649v-2.049c1.5-0.851,3.324-1.5,5.349-1.5
			c2.524,0,4.399,1.699,4.399,4.948v5.549C205.738,313.205,206.188,314.03,206.837,314.504z M203.813,312.38
			c-0.05-0.875-0.075-1.899-0.075-2.875c-0.775-0.024-2.174-0.024-3.649,0.025c-2.5,0.075-3.224,1.475-3.224,2.524
			c0,1.574,1.2,2.074,3.124,2.074C201.189,314.129,202.664,313.379,203.813,312.38z"/>
		<path fill="#939598" d="M209.69,301.783h1.699l0.375,3.299c0.575-1.175,2.049-3.549,3.599-3.549c0.825,0,1.45,0.1,2.024,0.274
			v1.925c0,0-0.85-0.225-1.7-0.225c-1.35,0-2.849,2.399-3.924,4.549v7.623h-2.074V301.783z"/>
		<path fill="#939598" d="M231.587,308.756c0,4.748-2.75,7.098-6.024,7.098c-3.249,0-5.999-2.35-5.999-7.098
			c0-4.499,2.725-7.224,5.999-7.224C228.837,301.533,231.587,304.257,231.587,308.756z M229.487,308.756
			c0-2.7-1.35-5.374-3.899-5.374c-2.575,0-3.924,2.6-3.924,5.349c0,2.799,1.35,5.323,3.899,5.323
			C228.113,314.054,229.487,311.63,229.487,308.756z"/>
		<path fill="#939598" d="M237.963,315.679c-1.949,0-3.074-1.399-3.074-3.574v-15.921h2.075v15.796c0,1.075,0.525,1.875,1.399,1.875
			h0.75v1.824H237.963z"/>
		<path fill="#939598" d="M242.439,298.683v-2.074h2.25v2.1h-2.2L242.439,298.683z M242.54,315.679v-13.896h2.074v13.896H242.54z"/>
		<path fill="#939598" d="M250.639,303.382c1.2-1.149,2.824-1.875,4.399-1.875c3.774,0,4.949,2.774,4.949,6.573v7.599h-2.075v-7.623
			c0-2.8-1.049-4.699-2.924-4.699c-1.7,0-3.299,0.775-4.324,1.95v10.372h-2.074v-13.896h1.799L250.639,303.382z"/>
		<path fill="#939598" d="M274.661,314.504l-1.299,1.399c-0.75-0.399-1.225-1.175-1.5-1.899c-1.025,0.975-2.625,1.85-4.149,1.85
			c-2.949,0-5.049-1.149-5.049-3.599c0-2.2,1.65-4.199,5.174-4.274c1.05-0.024,2.725,0,3.749,0.05c0-0.874,0.025-1.55,0.025-1.649
			c-0.05-1.949-1.2-2.949-2.475-2.949c-1.825,0-3.824,0.675-5.324,1.649v-2.049c1.5-0.851,3.324-1.5,5.349-1.5
			c2.524,0,4.399,1.699,4.399,4.948v5.549C273.561,313.205,274.011,314.03,274.661,314.504z M271.637,312.38
			c-0.05-0.875-0.075-1.899-0.075-2.875c-0.775-0.024-2.174-0.024-3.649,0.025c-2.5,0.075-3.224,1.475-3.224,2.524
			c0,1.574,1.2,2.074,3.124,2.074C269.012,314.129,270.487,313.379,271.637,312.38z"/>
	</g>
	<line display="inline" fill="none" stroke="#A7A9AC" stroke-miterlimit="10" x1="86.333" y1="256.333" x2="345.667" y2="256.333"/>
</g>
<g id="Square" display="none">
	<rect x="-37.744" y="-14.333" display="inline" fill="#FFFFFF" width="92.996" height="106.5"/>
</g>
<g id="Hour-glass" display="none">
	<g id="Layer_8" display="inline">
	</g>
	<linearGradient id="Horizon_line_4_" gradientUnits="userSpaceOnUse" x1="-14.7217" y1="92.229" x2="42.0269" y2="92.229">
		<stop  offset="0" style="stop-color:#FFFFFF;stop-opacity:0"/>
		<stop  offset="0.2188" style="stop-color:#FBFBFB;stop-opacity:0.4288"/>
		<stop  offset="0.4299" style="stop-color:#F0F0F0;stop-opacity:0.8423"/>
		<stop  offset="0.5104" style="stop-color:#E9E9EA"/>
		<stop  offset="0.5688" style="stop-color:#EEEEEE;stop-opacity:0.8806"/>
		<stop  offset="0.7925" style="stop-color:#FBFBFB;stop-opacity:0.4237"/>
		<stop  offset="1" style="stop-color:#FFFFFF;stop-opacity:0"/>
	</linearGradient>
	<rect id="Horizon_line_2_" x="-14.722" y="91.573" fill="url(#Horizon_line_4_)" width="56.749" height="1.313"/>
	<g id="Layer_15" display="inline">
	</g>
	<g id="Hand">
		<path display="inline" fill="#E0E1E2" stroke="#FFFFFF" stroke-width="2" stroke-miterlimit="10" d="M58.369,72.855
			c0,0-2.554,9.739-0.21,17.124c3.475,10.948-26.008,2.89-26.863,2.462c-0.856-0.428,7.059-6.87,3.313-22.69
			C30.862,53.931,58.369,72.855,58.369,72.855z"/>
		<path display="inline" fill="#E0E1E2" stroke="#FFFFFF" stroke-width="2" stroke-miterlimit="10" d="M40.2,35.342l-5.299-0.637
			c0,0-2.26,3.677-3.537,8.574c-1.276,4.899-1.154,9.475-0.96,14.861c0.195,5.386,10.659,3.044,11.021-4.493
			c0.364-7.535-1.755-7.706-1.755-7.706S41.944,41.317,40.2,35.342z"/>
		<path display="inline" fill="#E0E1E2" stroke="#FFFFFF" stroke-width="2" stroke-miterlimit="10" d="M49.03,44.528
			c1.284-1.283,3.425-1.719,3.425-1.719s-0.856-5.559,1.64-10.695c2.498-5.139,9.777-2.569,9.777-2.569l-2.854,20.406l-8.879,4.904
			C52.139,54.855,38.501,51.468,49.03,44.528z"/>
		<path display="inline" fill="#E0E1E2" stroke="#FFFFFF" stroke-width="2" stroke-miterlimit="10" d="M56.368,44.528
			c1.285-1.283,3.426-1.719,3.426-1.719s-0.857-5.559,1.641-10.695c2.496-5.139,9.774-2.569,9.774-2.569l-2.854,20.406l-8.879,4.904
			C59.477,54.855,45.839,51.468,56.368,44.528z"/>
		<path display="inline" fill="#E0E1E2" stroke="#FFFFFF" stroke-width="2" stroke-miterlimit="10" d="M61.901,48.222
			c1.284-1.284,3.425-1.719,3.425-1.719s-0.856-5.559,1.64-10.696c2.498-5.137,9.777-2.569,9.777-2.569L73.89,53.646l-8.88,4.904
			C65.01,58.55,51.372,55.164,61.901,48.222z"/>
		<path display="inline" fill="#E0E1E2" stroke="#FFFFFF" stroke-width="2" stroke-miterlimit="10" d="M59.872,72.027l16.695-11.624
			l2.855-20.406c0,0-7.278-2.568-9.775,2.568c-2.498,5.137-1.643,10.697-1.643,10.697s-3.852,2.146-5.137,3.431
			c0,0-7.277-9.99-14.127-10.988c-3.813-0.556-5.517,0.875-7.944,2.327c-1.933,1.159-3.237,2.33-3.615,2.524
			c-5.413,4.698-8.34,13.173-1.852,18.487C44.245,76.346,54.455,75.104,59.872,72.027z"/>
		<path display="inline" fill="#E0E1E2" stroke="#FFFFFF" stroke-width="2" stroke-miterlimit="10" d="M40.478,47.8
			c0,0,7.893-0.158,8.082,9.316"/>
	</g>
	<path id="Outer_hourglass" display="inline" fill="#FFFFFF" d="M-28.749,29.455c-3.031-6.228,0.006-10.623,0.006-10.623
		c19.625-25.554,6.196-44.47,6.196-44.47l-22.756-0.013l-0.124,0l-22.755-0.012c0,0-13.449,18.905,6.148,44.479
		c0,0,3.033,4.399-0.005,10.624c-3.039,6.223-14.216,18.979-9.512,44.351l26.071,0.014l0.125,0l26.071,0.014
		C-14.553,48.45-25.716,35.682-28.749,29.455z"/>
	<path display="inline" fill="#BCBEC0" d="M-34.41,29.453c-2.273-6.228,0.005-10.623,0.005-10.623
		c14.722-25.557,6.153-44.472,6.153-44.472l-17.066-0.008l-0.094,0l-17.065-0.009c0,0-8.59,18.906,6.105,44.479
		c0,0,2.273,4.397-0.006,10.622c-2.28,6.224-12.164,18.981-8.64,44.354l19.554,0.01l0.094,0l19.553,0.011
		C-22.266,48.447-32.137,35.68-34.41,29.453z"/>
	<path display="inline" fill="#D1D3D4" d="M-37.155,29.451c-1.705-6.228,0.004-10.623,0.004-10.623
		C-26.106-6.73-32.53-25.644-32.53-25.644l-12.799-0.006l-0.071,0l-12.8-0.006c0,0-6.444,18.907,4.574,44.477
		c0,0,1.704,4.397-0.006,10.622c-1.71,6.226-9.125,18.984-6.486,44.354l14.666,0.009l0.07,0l14.665,0.008
		C-28.05,48.444-35.453,35.678-37.155,29.451z"/>
	<path display="inline" fill="#E6E7E8" d="M-39.215,29.45c-1.277-6.227,0.005-10.624,0.005-10.624
		c8.287-25.559,3.471-44.472,3.471-44.472l-9.599-0.006l-0.053,0.001l-9.6-0.006c0,0-4.836,18.908,3.423,44.476
		c0,0,1.278,4.398-0.006,10.624c-1.283,6.226-6.847,18.984-4.87,44.355l10.999,0.006h0.053l10.999,0.006
		C-32.389,48.442-37.938,35.676-39.215,29.45z"/>
	<path display="inline" fill="#FFFFFF" d="M-40.76,29.449c-0.958-6.226,0.005-10.623,0.005-10.623
		c6.219-25.561,2.609-44.473,2.609-44.473l-7.2-0.004l-0.039,0l-7.201-0.004c0,0-3.629,18.909,2.562,44.476
		c0,0,0.958,4.397-0.006,10.623c-0.962,6.226-5.137,18.985-3.657,44.355l8.249,0.004l0.04,0l8.249,0.004
		C-35.644,48.439-39.802,35.675-40.76,29.449z"/>
	<path display="inline" fill="#D2D2D2" d="M-32.736,29.454c-2.619-6.228,0.006-10.624,0.006-10.624
		c16.963-25.555,7.085-44.47,7.085-44.47l-19.666-0.011h-0.107l-19.667-0.011c0,0-9.897,18.906,7.039,44.479
		c0,0,2.62,4.397-0.006,10.622c-2.626,6.225-14.016,18.98-9.953,44.353l22.534,0.012h0.107l22.534,0.012
		C-18.741,48.448-30.116,35.68-32.736,29.454z"/>
	<path id="Outer_frame" display="inline" fill="#FFFFFF" d="M-13.838-14.428l0.006-11.206l-10.434-0.005v-0.001l-14.058-0.007
		l-22.865-0.012l0,0l-6.302-0.003v0l-9.406-0.005l-0.005,11.205l9.406,0.005v0.001l1.027,0l0,0l42.198,0.023l0,0l6.044,0.003
		l-0.018,34.022c-1.024,0.977-1.697,2.617-1.699,4.479c-0.001,1.861,0.671,3.501,1.694,4.479l-0.019,34.062l-6.044-0.003l0,0
		l-34.134-0.018l-2.791-0.001l0,0l-5.275-0.003l0,0h-1.027l0,0l-5.018-0.003l0.018-34.062c1.024-0.977,1.699-2.617,1.699-4.479
		c0.001-1.861-0.671-3.501-1.694-4.479l0.018-34.023l-4.388-0.003l-0.019,34.023c-1.023,0.977-1.698,2.617-1.699,4.479
		c0,1.861,0.672,3.501,1.695,4.48l-0.018,34.061l0,0l-0.006,11.206l9.406,0.005v0.001l23.022,0.012l14.929,0.008l0,0l5.274,0.002
		l0,0l10.433,0.005l0.005-8.871h0l0.019-36.396c1.024-0.977,1.698-2.617,1.698-4.478c0.001-1.862-0.67-3.502-1.693-4.48
		L-13.838-14.428L-13.838-14.428z"/>
	<path display="inline" fill="#FFFFFF" d="M-38.075,30.105c13.34,12.534,5.849,32.5,5.849,32.5l-13.2-0.007h-0.208l-13.2-0.007
		c0,0-7.47-19.974,5.883-32.494c0,0,4.925-2.631,5.196-7.303c0.102-1.749-0.448-3.782-2.151-6.07
		c-3.144-4.225-11.097-9.628-9.374-31.176l13.688,0.008h0.207l13.689,0.007c1.699,21.549-6.259,26.945-9.408,31.166
		c-1.742,2.334-2.28,4.403-2.151,6.175C-42.921,27.508-38.075,30.105-38.075,30.105z"/>
	<g id="Inner_frame" display="inline">
		<path fill="#FFFFFF" d="M-70.822-5.82l0.005-8.638l-1.697-0.001l0,0l-2.194-0.001l-0.005,8.638l0,0l-0.013,24.436l0,0
			c-2.148-0.001-2.155,10.854-0.006,10.855l0,0l-0.018,33.113l0.249,0l0,0l3.891,0.002l0.005-8.638l-1.946-0.001l0.014-25.423
			c1.024-0.978,1.699-2.618,1.699-4.479c0.001-1.861-0.671-3.502-1.694-4.48l0.014-25.384L-70.822-5.82z"/>
		<path fill="#FFFFFF" d="M-16.05,18.646c0,0-0.001,0-0.001,0l0.018-33.074l-2.193-0.002l0,0.001l-3.252-0.002l-0.005,8.638
			l3.253,0.002l-0.014,25.385c-1.024,0.977-1.698,2.616-1.699,4.479c-0.001,1.861,0.671,3.501,1.694,4.479l-0.013,25.423
			l-3.252-0.001l-0.005,8.637l3.892,0.002v0l1.555,0l0.018-33.113c0.001,0,0.001,0,0.001,0
			C-13.907,29.502-13.901,18.646-16.05,18.646z"/>
	</g>
</g>
<g id="Word-mark">
	<g>
		<path fill="#FFFFFF" d="M39.378,1.579v30.486c0,3.48-0.779,6.531-2.336,9.152c-1.558,2.622-3.808,4.63-6.751,6.026
			c-2.944,1.397-6.424,2.095-10.441,2.095c-6.059,0-10.764-1.552-14.115-4.657c-3.352-3.104-5.027-7.353-5.027-12.746V1.579h9.958
			v28.843c0,3.631,0.73,6.295,2.191,7.992c1.461,1.697,3.878,2.546,7.251,2.546c3.266,0,5.634-0.854,7.106-2.562
			c1.471-1.708,2.208-4.388,2.208-8.041V1.579H39.378z"/>
		<path fill="#FFFFFF" d="M87.763,48.694H75.066L54.57,13.051h-0.29c0.408,6.295,0.612,10.785,0.612,13.471v22.172h-8.927V1.579
			h12.601L79.03,36.867h0.226c-0.322-6.123-0.483-10.452-0.483-12.987V1.579h8.991V48.694z"/>
		<path fill="#FFFFFF" d="M114.686,9.216c-3.76,0-6.671,1.413-8.733,4.238c-2.063,2.825-3.094,6.763-3.094,11.811
			c0,10.506,3.942,15.759,11.827,15.759c3.308,0,7.315-0.827,12.021-2.481v8.379c-3.867,1.611-8.186,2.417-12.955,2.417
			c-6.854,0-12.096-2.079-15.727-6.236c-3.631-4.157-5.446-10.124-5.446-17.902c0-4.898,0.891-9.189,2.675-12.875
			c1.783-3.685,4.345-6.51,7.686-8.476c3.34-1.966,7.256-2.949,11.747-2.949c4.576,0,9.173,1.107,13.793,3.319l-3.223,8.121
			c-1.762-0.838-3.534-1.568-5.317-2.191C118.155,9.528,116.404,9.216,114.686,9.216z"/>
		<path fill="#FFFFFF" d="M163.503,3.867c-5.909,0-10.56,1.891-13.954,5.672c-3.395,3.782-5.092,8.959-5.092,15.533
			c0,6.725,1.6,11.945,4.802,15.662c3.201,3.717,7.777,5.575,13.729,5.575c3.953,0,7.583-0.504,10.893-1.515v2.9
			c-3.116,1.096-7.005,1.644-11.667,1.644c-6.618,0-11.827-2.138-15.63-6.413c-3.803-4.275-5.704-10.248-5.704-17.918
			c0-4.791,0.907-9.012,2.723-12.665c1.815-3.652,4.426-6.472,7.831-8.459c3.405-1.987,7.364-2.981,11.875-2.981
			c4.597,0,8.711,0.859,12.342,2.578l-1.32,2.965C170.894,4.726,167.285,3.867,163.503,3.867z"/>
		<path fill="#FFFFFF" d="M199.635,48.694h-3.319V4.672h-15.308V1.579h33.935v3.094h-15.308V48.694z"/>
		<path fill="#FFFFFF" d="M220.945,48.694V1.579h3.287v47.115H220.945z"/>
		<path fill="#FFFFFF" d="M278.458,15.114c0,4.555-1.547,8.046-4.641,10.474c-3.094,2.428-7.477,3.642-13.148,3.642h-7.283v19.465
			h-3.287V1.579h11.537C272.851,1.579,278.458,6.09,278.458,15.114z M253.386,26.393h6.478c5.307,0,9.142-0.875,11.505-2.626
			c2.363-1.751,3.545-4.592,3.545-8.524c0-3.63-1.117-6.321-3.352-8.073c-2.234-1.751-5.693-2.626-10.377-2.626h-7.799V26.393z"/>
		<path fill="#FFFFFF" d="M298.063,12.987c1.482,0,3.072,0.15,4.77,0.451l-0.611,3.062c-1.461-0.365-2.977-0.548-4.545-0.548
			c-2.986,0-5.436,1.268-7.348,3.803c-1.912,2.535-2.867,5.736-2.867,9.604v19.336h-3.191v-35.03h2.707l0.322,6.316h0.227
			c1.439-2.578,2.975-4.388,4.607-5.43C293.766,13.508,295.743,12.987,298.063,12.987z"/>
		<path fill="#FFFFFF" d="M335.297,31.13c0,5.715-1.387,10.179-4.158,13.39c-2.771,3.212-6.596,4.818-11.473,4.818
			c-3.072,0-5.779-0.741-8.121-2.224s-4.135-3.609-5.381-6.381s-1.869-5.973-1.869-9.604c0-5.715,1.385-10.167,4.156-13.358
			s6.574-4.786,11.408-4.786c4.813,0,8.59,1.617,11.328,4.85C333.928,21.071,335.297,25.502,335.297,31.13z M307.647,31.13
			c0,4.813,1.057,8.567,3.174,11.263c2.115,2.696,5.107,4.044,8.975,4.044s6.859-1.348,8.977-4.044
			c2.115-2.696,3.174-6.45,3.174-11.263c0-4.834-1.07-8.583-3.207-11.247c-2.139-2.664-5.141-3.996-9.008-3.996
			s-6.848,1.327-8.941,3.98C308.694,22.521,307.647,26.275,307.647,31.13z"/>
		<path fill="#FFFFFF" d="M338.014,64.549c-1.719,0-3.168-0.269-4.35-0.806v-2.771c1.482,0.43,2.867,0.645,4.156,0.645
			c3.244,0,4.867-1.891,4.867-5.672V13.664h3.189v41.83c0,2.9-0.682,5.135-2.045,6.703
			C342.467,63.765,340.528,64.549,338.014,64.549z M342.237,3.931c0-2.063,0.676-3.094,2.029-3.094c0.666,0,1.188,0.269,1.564,0.806
			c0.375,0.537,0.563,1.3,0.563,2.288c0,0.967-0.188,1.729-0.563,2.288c-0.377,0.559-0.898,0.838-1.564,0.838
			C342.913,7.057,342.237,6.015,342.237,3.931z"/>
		<path fill="#FFFFFF" d="M369.446,49.338c-5.092,0-9.063-1.568-11.908-4.705c-2.848-3.137-4.27-7.53-4.27-13.181
			c0-5.586,1.375-10.06,4.125-13.422c2.75-3.362,6.455-5.043,11.117-5.043c4.125,0,7.381,1.439,9.766,4.318
			c2.385,2.879,3.576,6.789,3.576,11.73v2.578H356.62c0.043,4.813,1.164,8.487,3.367,11.021c2.201,2.535,5.355,3.803,9.459,3.803
			c1.998,0,3.754-0.14,5.27-0.419c1.514-0.279,3.432-0.881,5.752-1.805v2.9c-1.977,0.859-3.803,1.445-5.479,1.756
			S371.465,49.338,369.446,49.338z M368.51,15.823c-3.373,0-6.08,1.112-8.121,3.335s-3.232,5.43-3.576,9.62h21.656
			c0-4.061-0.881-7.235-2.643-9.523S371.625,15.823,368.51,15.823z"/>
		<path fill="#FFFFFF" d="M403.198,49.338c-5.006,0-8.928-1.579-11.764-4.737s-4.254-7.562-4.254-13.213
			c0-5.801,1.473-10.317,4.416-13.551c2.943-3.233,6.971-4.85,12.084-4.85c3.029,0,5.93,0.527,8.701,1.579l-0.869,2.836
			c-3.029-1.01-5.662-1.515-7.896-1.515c-4.297,0-7.551,1.327-9.764,3.98c-2.213,2.654-3.32,6.473-3.32,11.457
			c0,4.727,1.107,8.427,3.32,11.102s5.307,4.012,9.281,4.012c3.18,0,6.133-0.569,8.861-1.708v2.965
			C409.76,48.791,406.829,49.338,403.198,49.338z"/>
		<path fill="#FFFFFF" d="M432.786,46.502c2.02,0,3.781-0.172,5.285-0.516v2.578c-1.547,0.516-3.33,0.773-5.35,0.773
			c-3.094,0-5.377-0.827-6.848-2.481c-1.473-1.654-2.207-4.254-2.207-7.799V16.435h-5.189v-1.869l5.189-1.45l1.611-7.928h1.643
			v8.476h10.281v2.771H426.92v22.172c0,2.686,0.473,4.673,1.418,5.962S430.766,46.502,432.786,46.502z"/>
	</g>
</g>
<g id="Layer_16" display="none">
</g>
<g id="Guides" display="none">
	<rect id="Letter_black_bar" x="121.167" y="-14.333" width="5.75" height="47.62"/>
	<rect id="Padding_black_bar" x="82.667" y="92.625" width="47.667" height="11.5"/>
</g>
</svg>
