<?xml version="1.0" encoding="utf-8"?>
<!-- Generator: Adobe Illustrator 15.0.0, SVG Export Plug-In . SVG Version: 6.00 Build 0)  -->
<!DOCTYPE svg PUBLIC "-//W3C//DTD SVG 1.1//EN" "http://www.w3.org/Graphics/SVG/1.1/DTD/svg11.dtd">
<svg version="1.1" id="Layer_1" xmlns="http://www.w3.org/2000/svg" xmlns:xlink="http://www.w3.org/1999/xlink" x="0px" y="0px"
	 width="187.952px" height="51.74px" viewBox="215.524 257.13 187.952 51.74" enable-background="new 215.524 257.13 187.952 51.74"
	 xml:space="preserve">
<g>
	<g>
		<g>
			<path fill="#FFFFFF" d="M239.965,274.21h0.071C240.036,274.21,240.036,274.21,239.965,274.21
				C240.036,274.21,239.965,274.21,239.965,274.21z"/>
		</g>
		<g>
			<path fill="#FFFFFF" d="M239.822,274.639L239.822,274.639v-0.357l0,0l0,0l0,0V274.639z"/>
		</g>
		<g>
			<rect x="239.822" y="274.281" fill="#FFFFFF" width="0" height="0.357"/>
		</g>
		<g>
			<path fill="#FFFFFF" d="M236.749,274.067L236.749,274.067L236.749,274.067L236.749,274.067z"/>
		</g>
		<g>
			<polygon fill="#FFFFFF" points="239.822,274.639 239.822,274.639 239.822,274.639 			"/>
		</g>
	</g>
	<g>
		<g>
			<path fill="#FFFFFF" d="M233.748,271.708c0.071,0.072,0.143,0.072,0.143,0.072c6.074-0.215,9.504,2.072,9.791,3.001l2.43-0.072
				l0.786-1.644c0.071-0.143,0-0.357,0-0.357c-0.715-0.786-6.789-2.573-14.15-2.573c-7.861,0-12.792,1.572-13.864,2.287
				c0,0-0.286,0.143-0.286,0.357c0,0.071,0.143,0.429,0.143,0.429l0.214,0.429c0.072,0.143,0.143,0.143,0.286,0
				c0,0,0.143-0.071,0.143-0.143c0-0.071-0.072-0.286-0.072-0.286c-0.143-0.286,0.072-0.357,0.072-0.357l0.429-0.214
				c0.214-0.071,0.214,0.071,0.286,0.214c0,0,0.071,0.214,0.143,0.286c0.143,0.072,0.5-0.143,1.5-0.429c0.072,0,0.143,0,0.286-0.071
				c0.071-0.071,0-0.429,0-0.429c-0.072-0.143-0.143-0.357,0.286-0.429l0.643-0.143c0.286-0.072,0.357,0.071,0.357,0.286
				c0,0,0,0.286,0.072,0.357c0.071,0.143,0.214-0.071,2.287-0.286c0,0,0.286,0,0.357-0.143s0-0.357,0-0.357
				c0-0.214-0.143-0.429,0.357-0.429l0.857-0.071c0.643-0.143,0.572,0.143,0.572,0.357c0,0,0,0.286,0.071,0.286
				c0.072,0.071,0.286,0.071,0.286,0.071c1.143-0.143,1.787-0.143,3.001-0.143c0,0,0.143,0,0.214-0.071s0.071-0.143,0.071-0.143
				c0-0.143,0-0.357,0.072-0.429c0.071-0.071,0.286-0.071,0.429-0.071h1c0.143,0,0.5-0.072,0.572,0.071
				c0.071,0.072,0.071,0.5,0.071,0.5S233.748,271.637,233.748,271.708z"/>
		</g>
		<g>
			<path fill="#FFFFFF" d="M232.747,261.918c-5.932,0-9.505,1.93-11.863,4.145l-0.071,0.071c-0.072,0.143-0.072,0.286,0.214,0.214
				c5.074-2.144,10.577-0.786,12.363,1.215c0.071,0.072,0,0.143-0.071,0.143c-1.787,0-3.288-0.071-6.575,0.357
				c-1.787,0.286-3.359,0.5-4.717,0.857c-2.215,0.572-3.788,1.287-4.646,1.858c-0.286,0.143-0.357,0.286-0.429,0.429
				c-0.071,0.286-0.071,0.286-0.143,0.5c-0.143,0.357-0.143,0.572-0.215,0.715c-0.071,0.214,0.215,0.143,0.357,0
				c0.286-0.286,1-0.929,2.073-1.429c1.072-0.5,2.858-1.072,4.859-1.43c2.573-0.5,5.789-0.786,8.647-0.786
				c3.359,0,6.36,0.357,8.861,0.858c2.573,0.5,4.574,1.215,5.86,1.858c0.643,0.286,0.929,0.572,1.358,0.929
				c0.357,0.357,0.357,0.071,0.357-0.072c0,0-0.071-0.429-0.572-1.429C246.683,267.85,242.252,261.918,232.747,261.918"/>
		</g>
		<g>
			<g>
				<path fill="#FFFFFF" d="M233.104,305.654c-11.72,0-17.581-2.716-17.581-4.288l0,0v-1.501c0,0,0-0.071,0.072-0.071h0.071
					c5.074,3.859,17.08,4.359,22.297,2.645c0.143-0.071,0.214-0.144,0.214-0.144l-0.071-0.07c-0.143-0.072-0.214-0.072-0.357,0
					c-0.071,0-0.143,0-0.214,0c-8.218,0.857-16.866-0.787-19.796-2.859l-0.071-0.071v-1.786c0-0.072,0-0.072,0.071-0.072
					c0.072,0,0.072,0,0.072,0c0.357,0.357,1.858,1.072,4.716,1.645c2.144,0.428,5.646,1,10.291,1c7.003,0,12.864-1.287,14.436-2.145
					c0.357-0.214,0.572-0.357,0.572-0.428c0-0.072,0.071-0.072,0.071-0.072c0.071,0,0.071,0.072,0.071,0.072l0.072,1.071
					c1.787,0,2.43,0.071,2.501,0.501c0,0,0,0.07,0,0.143l0,0l0.072,2.072C250.685,302.867,244.467,305.654,233.104,305.654z"/>
			</g>
		</g>
		<g>
			<path fill="#FFFFFF" d="M240.036,273.352h-3.216c-0.143,0-0.214,0.072-0.214,0.214v0.357c0,0.143,0.072,0.214,0.214,0.214h1
				c0.072,0,0.143,0.072,0.143,0.072c0.071,0.071-0.143,0.214-0.214,0.214l-0.5,0.286c-0.071,0.072-0.143,0.143-0.143,0.286v23.083
				c0.071,0.429,0.714,0.429,1.429,0.429c0.572,0,1.286,0,1.358-0.429c0,0,0-22.011,0-23.869c0-0.072,0.071-0.143,0.071-0.143h0.143
				c0.143,0,0.214-0.071,0.214-0.214v-0.357C240.251,273.424,240.179,273.352,240.036,273.352z"/>
		</g>
		<g>
			<g>
				<path fill="#FFFFFF" d="M232.89,297.293c-1,0-2.001,0-2.072-0.071c-0.143-0.071-0.143-0.644-0.071-1.072
					c0,0,0-0.071,0.071-0.071l0.357-0.143v-4.288c0,0,0-0.071,0-0.215c0.071-0.143,0.143-0.214,0.214-0.214
					c0.286-0.215,0.929-0.644,1.286-0.857c0.072,0,0.072-0.072,0.072-0.072v-0.071c0-0.071-0.143-0.071-0.214-0.071
					c-0.072,0-0.072,0-0.072,0c-0.071,0-0.143,0-1,0c0,0-0.143,0-0.286-0.071c-0.071,0-0.143-0.071-0.143-0.071l0,0l-0.286-0.644
					h-0.214h-0.072v-0.071v-0.143c0-0.072,0.072-0.072,0.072-0.072h4.502c0.072,0,0.072,0.072,0.072,0.072v0.143v0.071h-0.072
					h-0.143l-0.429,0.857v5.718l0.357,0.143l0.072,0.071c0.071,0.644,0.071,1.001-0.072,1.072
					C234.748,297.222,233.819,297.293,232.89,297.293z"/>
			</g>
		</g>
		<g>
			<path fill="#FFFFFF" d="M246.325,274.639h-3.216c-0.143,0-0.214,0.071-0.214,0.214v0.357c0,0.143,0.071,0.214,0.214,0.214h1
				c0.071,0,0.143,0.071,0.143,0.071c0.071,0.072-0.143,0.214-0.214,0.214l-0.5,0.286c-0.071,0.071-0.143,0.143-0.143,0.286v20.868
				c0.072,0.428,0.715,0.428,1.43,0.428c0.571,0,1.286,0,1.357-0.428c0,0,0-19.725,0-21.654c0-0.071,0.072-0.143,0.072-0.143h0.143
				c0.143,0,0.215-0.071,0.215-0.214v-0.357C246.54,274.71,246.468,274.639,246.325,274.639z"/>
		</g>
		<g>
			<path fill="#FFFFFF" d="M228.673,273.352h-3.216c-0.143,0-0.214,0.072-0.214,0.214v0.357c0,0.143,0.071,0.214,0.214,0.214h1
				c0.071,0,0.143,0.072,0.143,0.072c0.071,0.071-0.143,0.214-0.214,0.214l-0.5,0.286c-0.071,0.072-0.143,0.143-0.143,0.286v23.083
				c0.071,0.429,0.714,0.429,1.429,0.429c0.572,0,1.286,0,1.358-0.429c0,0,0-22.011,0-23.869c0-0.072,0.071-0.143,0.071-0.143h0.143
				c0.143,0,0.214-0.071,0.214-0.214v-0.357C228.888,273.424,228.816,273.352,228.673,273.352z"/>
		</g>
		<g>
			<path fill="#FFFFFF" d="M222.385,274.71h-3.216c-0.143,0-0.214,0.072-0.214,0.214v0.357c0,0.143,0.072,0.214,0.214,0.214h1
				c0.072,0,0.143,0.072,0.143,0.072c0.072,0.071-0.143,0.214-0.214,0.214l-0.5,0.286c-0.072,0.071-0.143,0.143-0.143,0.286v20.868
				c0.071,0.429,0.714,0.429,1.429,0.429c0.572,0,1.287-0.072,1.358-0.429c0,0,0-19.725,0-21.654c0-0.072,0.071-0.143,0.071-0.143
				h0.143c0.143,0,0.214-0.072,0.214-0.214v-0.357C222.599,274.782,222.527,274.71,222.385,274.71z"/>
		</g>
	</g>
	<g>
		<rect x="263.834" y="257.13" fill="#FFFFFF" width="0.572" height="51.74"/>
	</g>
	<g>
		<g>
			<path fill="#FFFFFF" d="M285.845,268.564h-0.429c-0.143-0.929-0.286-1.143-0.929-1.143h-1.072v3.859c0,0.786,0.143,0.929,1,0.929
				v0.429h-3.645v-0.429c0.929,0,1-0.143,1-0.929v-3.859H280.7c-0.429,0-0.715,0.143-0.857,1.143h-0.429l0.143-1.858h0.429
				c0.072,0.071,0.072,0.071,0.143,0.143c0.072,0,0.143,0,0.286,0h4.216c0.429,0,0.5,0,0.572-0.143h0.429L285.845,268.564z"/>
		</g>
		<g>
			<path fill="#FFFFFF" d="M293.206,269.35v-1.143c0-0.715-0.143-0.929-0.786-0.929v-0.429h3.145v0.429
				c-0.715,0-0.786,0.214-0.786,0.786v3.216c0,0.643,0.071,0.929,0.786,0.929v0.429h-3.145v-0.429c0.572,0,0.786-0.143,0.786-0.929
				v-1.358h-2.787v1.358c0,0.572,0.071,0.857,0.786,0.857v0.429h-3.216v-0.429c0.643,0,0.786-0.143,0.786-0.929v-3.145
				c0-0.715-0.214-0.929-0.786-0.929v-0.429h3.216v0.429c-0.643,0.072-0.786,0.143-0.786,0.858v1.215h2.787V269.35z"/>
		</g>
	</g>
	<g>
		<g>
			<path fill="#FFFFFF" d="M303.354,266.849l0.071,1.358h-0.429c-0.071-0.644-0.214-0.786-0.714-0.786h-1.858v2.001h1.215
				c0.644,0,0.858-0.143,0.858-0.715h0.429v1.93h-0.429c0-0.5-0.143-0.644-0.858-0.644h-1.215v1.501c0,0.5,0.072,0.5,0.572,0.5
				h1.072c0.786,0,1-0.357,1.143-1h0.429l-0.143,1.572h-5.646v-0.429c0.858,0,1-0.214,1-0.857v-3.216
				c0-0.786-0.286-0.858-0.929-0.858v-0.429h5.431V266.849z"/>
		</g>
		<g>
			<path fill="#FFFFFF" d="M316.718,266.849v0.429c-0.786,0-0.929,0.143-0.929,0.857v2.073c0,1.858-1.144,2.573-2.716,2.573
				c-1.716,0-2.787-0.786-2.787-2.144v-2.43c0-0.644-0.144-0.929-0.786-0.929v-0.429h3.145v0.429c-0.643,0-0.857,0.214-0.857,0.786
				v2.501c0,0.857,0.5,1.429,1.644,1.429c1.215,0,1.715-0.644,1.715-1.858v-1.929c0-0.715-0.143-0.929-0.929-0.929v-0.429H316.718
				L316.718,266.849z"/>
		</g>
	</g>
	<g>
		<g>
			<path fill="#FFFFFF" d="M326.08,266.849v0.429c-0.644,0-0.857,0.214-0.857,0.857v4.574h-0.715l-4.217-4.431v3.073
				c0,0.644,0.072,0.858,0.857,0.858v0.429h-2.357v-0.429c0.643,0,0.857-0.143,0.857-0.929v-3.716
				c-0.144-0.143-0.357-0.214-0.787-0.214v-0.429h2.216l3.502,3.788v-2.501c0-0.572-0.071-0.858-0.857-0.858v-0.429h2.358V266.849z"
				/>
		</g>
		<g>
			<path fill="#FFFFFF" d="M328.295,272.638v-0.429c0.644,0,0.786-0.214,0.786-0.858v-3.216c0-0.643-0.143-0.929-0.786-0.929v-0.429
				h3.217v0.429c-0.715,0-0.858,0.215-0.858,0.929v3.145c0,0.572,0.071,0.857,0.858,0.857v0.429h-3.217V272.638z"/>
		</g>
	</g>
	<g>
		<g>
			<path fill="#FFFFFF" d="M340.23,267.278c-0.645,0-0.858,0.143-1.287,1.072l-2.001,4.431h-0.715l-1.929-4.359
				c-0.501-1.072-0.572-1.144-1.215-1.144v-0.429h3.501v0.429c-0.714,0-0.929,0.143-0.929,0.357c0,0.143,0.071,0.286,0.143,0.572
				l1.215,2.715l1.072-2.358c0.285-0.572,0.357-0.786,0.357-0.929c0-0.214-0.215-0.357-0.786-0.357v-0.429h2.573V267.278
				L340.23,267.278z"/>
		</g>
		<g>
			<path fill="#FFFFFF" d="M346.805,266.849l0.071,1.358h-0.429c-0.071-0.644-0.215-0.786-0.715-0.786h-1.857v2.001h1.215
				c0.643,0,0.857-0.143,0.857-0.715h0.429v1.93h-0.429c0-0.5-0.143-0.644-0.857-0.644h-1.215v1.501c0,0.5,0.07,0.5,0.571,0.5h1.071
				c0.787,0,1.001-0.357,1.145-1h0.428l-0.143,1.572h-5.646v-0.429c0.857,0,1.001-0.214,1.001-0.857v-3.216
				c0-0.786-0.286-0.858-0.93-0.858v-0.429h5.432V266.849z"/>
		</g>
	</g>
	<g>
		<path fill="#FFFFFF" d="M357.167,272.709h-1.144c-0.857,0-1.357-0.143-1.787-0.572c-0.571-0.572-1.143-1.572-1.572-2.001h-0.5
			v1.215c0,0.715,0.286,0.786,1.001,0.786v0.429h-3.502v-0.429c0.786,0,1.001-0.143,1.001-0.786v-3.216
			c0-0.714-0.144-0.857-1.001-0.857v-0.429c0.571-0.072,0.929-0.072,1.716-0.072c0.571,0,1.143-0.071,1.5-0.071
			c1.501,0,2.859,0.286,2.859,1.715c0,0.714-0.43,1.215-1.358,1.5c0.571,0.5,0.929,1.287,1.501,1.858
			c0.429,0.429,0.785,0.5,1.286,0.5V272.709L357.167,272.709z M352.164,269.708c1.358,0,1.858-0.429,1.858-1.358
			c0-0.714-0.5-1.215-1.358-1.215h-0.428v2.573H352.164z"/>
	</g>
	<g>
		<g>
			<path fill="#FFFFFF" d="M358.811,270.922c0.286,0.858,0.857,1.429,1.644,1.429c0.571,0,0.929-0.357,0.929-0.857
				c0-1.215-2.93-1.358-2.93-3.145c0-0.643,0.429-1.644,2.001-1.644c0.715,0,1.144,0.214,1.43,0.214c0.071,0,0.143,0,0.214-0.143
				h0.286l0.144,1.644h-0.43c-0.285-0.786-0.929-1.215-1.572-1.215c-0.5,0-0.785,0.215-0.785,0.572c0,1,3.072,1.215,3.072,3.216
				c0,1.072-0.857,1.786-2.145,1.786c-0.643,0-1.357-0.214-1.5-0.214s-0.215,0.072-0.215,0.143h-0.285l-0.286-1.858h0.429V270.922z"
				/>
		</g>
		<g>
			<path fill="#FFFFFF" d="M365.171,272.638v-0.429c0.644,0,0.786-0.214,0.786-0.858v-3.216c0-0.643-0.143-0.929-0.786-0.929v-0.429
				h3.216v0.429c-0.715,0-0.857,0.215-0.857,0.929v3.145c0,0.572,0.071,0.857,0.857,0.857v0.429h-3.216V272.638z"/>
		</g>
		<g>
			<path fill="#FFFFFF" d="M376.677,268.564h-0.429c-0.143-0.929-0.286-1.143-0.93-1.143h-1.071v3.859
				c0,0.786,0.143,0.929,1.001,0.929v0.429h-3.574v-0.429c0.93,0,1.001-0.143,1.001-0.929v-3.859h-1.072
				c-0.429,0-0.714,0.143-0.857,1.143h-0.429l0.143-1.858h0.43c0.07,0.071,0.07,0.071,0.143,0.143c0.071,0,0.143,0,0.285,0h4.217
				c0.429,0,0.5,0,0.572-0.143h0.428L376.677,268.564z"/>
		</g>
	</g>
	<g>
		<path fill="#FFFFFF" d="M385.109,267.278c-0.643,0-0.786,0.143-1.286,0.929l-1.358,2.072v1c0,0.643,0.072,0.857,0.93,0.857v0.429
			h-3.43v-0.429c0.785,0,0.928-0.214,0.928-0.857v-0.929l-1.715-2.287c-0.429-0.572-0.643-0.715-1.143-0.715v-0.429h3.358v0.429
			c-0.429,0-0.644,0.072-0.644,0.214c0,0.072,0.072,0.214,0.143,0.286l1.287,1.787l0.929-1.501c0.144-0.286,0.214-0.429,0.214-0.572
			c0-0.214-0.143-0.286-0.643-0.286v-0.429h2.358v0.429H385.109z"/>
	</g>
	<g>
		<g>
			<path fill="#FFFFFF" d="M282.486,281.928c0.715,0,1.144,0.643,1.144,1.572c0,1.858-1.715,3.002-2.859,3.002
				c-0.714,0-1.143-0.644-1.143-1.501C279.628,283.429,281.057,281.928,282.486,281.928z M281.415,286.072c0.429,0,1-1.071,1-2.357
				c0-0.715-0.286-1.287-0.572-1.287c-0.429,0-1,1.072-1,2.359C280.843,285.502,281.128,286.072,281.415,286.072z"/>
		</g>
		<g>
			<path fill="#FFFFFF" d="M286.203,286.002c-0.143,0.785-0.357,1.5-1.072,2.144c-0.429,0.429-0.929,0.715-1.644,0.715
				c-0.643,0-1.072-0.286-1.072-0.644c0-0.285,0.286-0.5,0.572-0.5c0.643,0,0.643,0.786,1.143,0.786
				c0.357,0,0.644-0.429,0.715-1.144l0.786-4.788h-0.786l0.071-0.286c0.286,0,0.644-0.071,0.858-0.214
				c0.214-1.5,1.072-2.787,2.573-2.787c0.643,0,1,0.214,1,0.572c0,0.286-0.286,0.572-0.572,0.572c-0.572,0-0.786-0.715-1.144-0.715
				c-0.286,0-0.357,0.357-0.5,1.287l-0.143,1.072h0.786l-0.072,0.5h-0.786L286.203,286.002z"/>
		</g>
	</g>
	<g>
		<g>
			<path fill="#FFFFFF" d="M300.567,280.57v0.429c-0.643,0-0.857,0.214-0.857,0.857v4.573h-0.715l-4.216-4.43v3.073
				c0,0.644,0.071,0.857,0.857,0.857v0.43h-2.358v-0.43c0.644,0,0.858-0.143,0.858-0.929v-3.716
				c-0.143-0.143-0.357-0.214-0.786-0.214v-0.429h2.215l3.502,3.788v-2.501c0-0.572-0.072-0.858-0.858-0.858v-0.429h2.358V280.57z"
				/>
		</g>
		<g>
			<path fill="#FFFFFF" d="M305.641,286.502c-2.645,0-3.431-1.715-3.431-3.002c0-1.572,1.144-3.073,3.645-3.073
				c2.573,0,3.359,1.715,3.359,3.001C309.214,284.644,308.428,286.502,305.641,286.502z M305.569,280.928
				c-0.857,0-1.715,0.571-1.715,2.215c0,1.787,0.857,3.001,2.072,3.001c0.929,0,1.644-0.715,1.644-2.215
				C307.57,282.143,306.784,280.928,305.569,280.928z"/>
		</g>
	</g>
	<g>
		<g>
			<path fill="#FFFFFF" d="M318.434,286.502h-1.145c-0.857,0-1.357-0.143-1.786-0.572c-0.571-0.571-1.144-1.572-1.572-2h-0.5v1.215
				c0,0.714,0.286,0.785,1.001,0.785v0.43h-3.502v-0.43c0.785,0,1-0.143,1-0.785v-3.216c0-0.715-0.143-0.858-1-0.858v-0.429
				c0.571,0,0.929-0.071,1.715-0.071c0.572,0,1.144-0.072,1.5-0.072c1.502,0,2.859,0.286,2.859,1.715
				c0,0.715-0.429,1.215-1.357,1.501c0.571,0.5,0.929,1.286,1.5,1.857c0.43,0.43,0.786,0.501,1.287,0.501V286.502z M313.431,283.5
				c1.358,0,1.858-0.429,1.858-1.357c0-0.715-0.5-1.215-1.358-1.215h-0.429v2.572H313.431z"/>
		</g>
		<g>
			<path fill="#FFFFFF" d="M325.794,282.285h-0.429c-0.143-0.929-0.286-1.143-0.93-1.143h-1.071v3.859
				c0,0.786,0.143,0.929,1.001,0.929v0.43h-3.574v-0.43c0.93,0,1.001-0.143,1.001-0.929v-3.859h-1.072
				c-0.429,0-0.714,0.143-0.857,1.143h-0.429l0.143-1.858h0.43c0.07,0.071,0.07,0.071,0.143,0.143c0.071,0,0.143,0,0.285,0h4.217
				c0.429,0,0.5,0,0.572-0.143h0.428L325.794,282.285z"/>
		</g>
	</g>
	<g>
		<g>
			<path fill="#FFFFFF" d="M333.012,283.143V282c0-0.715-0.143-0.929-0.786-0.929v-0.429h3.145v0.429
				c-0.644,0-0.786,0.214-0.786,0.786v3.216c0,0.644,0.072,0.93,0.786,0.93v0.428h-3.145v-0.428c0.571,0,0.786-0.144,0.786-0.93
				v-1.357h-2.787v1.357c0,0.572,0.072,0.857,0.786,0.857v0.43h-3.216v-0.43c0.643,0,0.786-0.143,0.786-0.929v-3.145
				c0-0.714-0.214-0.857-0.786-0.857v-0.429h3.216v0.429c-0.644,0.071-0.786,0.143-0.786,0.857v1.215h2.787V283.143z"/>
		</g>
		<g>
			<path fill="#FFFFFF" d="M347.733,284.572c-0.071,0.5-0.286,1.215-0.571,1.857v0.072c-0.072,0-0.143-0.072-0.286-0.072
				c-0.071,0-0.214,0-0.286,0c-0.285,0-0.5,0-0.785,0.072c-0.287,0-0.572,0.071-0.93,0.071c-1.215,0-2.072-0.429-2.645-1.001
				c-0.5-0.571-0.785-1.285-0.785-1.93c0-0.928,0.357-1.714,1-2.286s1.572-0.858,2.645-0.858c1,0,1.572,0.286,1.786,0.286
				c0.071,0,0.144-0.072,0.144-0.143h0.357l0.07,1.93h-0.428c-0.072-0.5-0.357-0.857-0.644-1.144
				c-0.286-0.286-0.715-0.429-1.216-0.429c-1.215,0-2.072,1-2.072,2.43c0,1.501,0.857,2.573,2.216,2.573
				c0.857,0,1.572-0.5,2.001-1.43H347.733L347.733,284.572z"/>
		</g>
	</g>
	<g>
		<g>
			<path fill="#FFFFFF" d="M355.952,286.359h-3.358v-0.43c0.643,0,0.857-0.071,0.857-0.285c0-0.143-0.072-0.357-0.215-0.715
				l-0.215-0.572h-2.072l-0.143,0.5c-0.143,0.357-0.215,0.645-0.215,0.715c0,0.286,0.286,0.357,0.787,0.357v0.43h-2.359v-0.43
				c0.715,0,0.787-0.143,1.072-1.143l1.43-4.146l-0.072-0.214h1.645l1.715,4.43c0.357,0.858,0.572,1.072,1.072,1.072v0.43H355.952z
				 M351.95,281.642l-0.786,2.215h1.644L351.95,281.642z"/>
		</g>
		<g>
			<path fill="#FFFFFF" d="M365.171,286.502h-1.144c-0.857,0-1.357-0.143-1.787-0.572c-0.571-0.571-1.143-1.572-1.572-2h-0.428
				v1.215c0,0.714,0.285,0.785,1,0.785v0.43h-3.502v-0.43c0.787,0,1.001-0.143,1.001-0.785v-3.216c0-0.715-0.144-0.858-1.001-0.858
				v-0.429c0.572,0,0.93-0.071,1.715-0.071c0.572,0,1.145-0.072,1.502-0.072c1.5,0,2.857,0.286,2.857,1.715
				c0,0.715-0.428,1.215-1.357,1.501c0.572,0.5,0.93,1.286,1.501,1.857c0.429,0.43,0.786,0.501,1.286,0.501v0.429H365.171z
				 M360.24,283.5c1.357,0,1.857-0.429,1.857-1.357c0-0.715-0.5-1.215-1.357-1.215h-0.5V283.5z"/>
		</g>
	</g>
	<g>
		<g>
			<path fill="#FFFFFF" d="M369.602,286.502c-2.645,0-3.43-1.715-3.43-3.002c0-1.572,1.143-3.073,3.645-3.073
				c2.572,0,3.358,1.715,3.358,3.001C373.175,284.644,372.389,286.502,369.602,286.502z M369.53,280.928
				c-0.857,0-1.716,0.571-1.716,2.215c0,1.787,0.858,3.001,2.073,3.001c0.929,0,1.644-0.715,1.644-2.215
				C371.531,282.143,370.674,280.928,369.53,280.928z"/>
		</g>
		<g>
			<path fill="#FFFFFF" d="M378.463,280.57v0.429c-0.785,0-0.929,0.143-0.929,0.857v3.216c0,0.572,0.071,0.644,0.715,0.644h0.715
				c0.571,0,0.786,0,1.571-1.072h0.43l-0.715,1.716h-5.146v-0.43c0.786,0,0.929-0.214,0.929-0.929v-3.145
				c0-0.643-0.071-0.857-0.929-0.857v-0.429H378.463z"/>
		</g>
	</g>
	<g>
		<g>
			<path fill="#FFFFFF" d="M382.752,286.359v-0.43c0.643,0,0.785-0.214,0.785-0.857v-3.216c0-0.643-0.143-0.857-0.785-0.857v-0.429
				h3.215v0.429c-0.715,0-0.857,0.214-0.857,0.857v3.145c0,0.571,0.072,0.857,0.857,0.857v0.429h-3.215V286.359z"/>
		</g>
		<g>
			<path fill="#FFFFFF" d="M395.615,280.57v0.429c-0.644,0-0.857,0.214-0.857,0.857v4.573h-0.715l-4.217-4.43v3.073
				c0,0.644,0.071,0.857,0.857,0.857v0.43h-2.357v-0.43c0.643,0,0.857-0.143,0.857-0.929v-3.716
				c-0.144-0.143-0.357-0.214-0.787-0.214v-0.429h2.216l3.502,3.788v-2.501c0-0.572-0.071-0.858-0.858-0.858v-0.429h2.359V280.57z"
				/>
		</g>
	</g>
	<g>
		<path fill="#FFFFFF" d="M403.476,286.359h-3.358v-0.43c0.644,0,0.857-0.071,0.857-0.285c0-0.143-0.071-0.357-0.214-0.715
			l-0.215-0.572h-2.072l-0.144,0.5c-0.143,0.357-0.214,0.645-0.214,0.715c0,0.286,0.286,0.357,0.786,0.357v0.43h-2.358v-0.43
			c0.715,0,0.786-0.143,1.072-1.143l1.429-4.146l-0.071-0.214h1.644l1.716,4.43c0.356,0.858,0.571,1.072,1.071,1.072v0.43H403.476z
			 M399.474,281.642l-0.786,2.215h1.645L399.474,281.642z"/>
	</g>
	<g>
		<g>
			<path fill="#FFFFFF" d="M282.987,299.08c-0.072,0.214-0.072,0.428,0.071,0.428s0.5-0.357,0.715-0.643v0.357
				c-0.572,0.571-1.144,1-1.501,1c-0.286,0-0.429-0.214-0.429-0.643c0-0.215,0-0.286,0.071-0.644l0,0
				c-0.643,0.715-1.286,1.286-1.572,1.286c-0.214,0-0.714-0.285-0.714-1s0.214-1.572,1.143-2.502
				c0.858-0.857,1.644-1.071,3.002-1.071L282.987,299.08z M282.415,296.293c-0.572,0-0.858,0.143-1.215,0.5
				c-0.357,0.357-0.644,1.143-0.644,1.715c0,0.429,0.143,0.715,0.429,0.715c0.215,0,0.572-0.357,1.001-0.786L282.415,296.293z"/>
		</g>
		<g>
			<path fill="#FFFFFF" d="M286.346,299.223c-0.072,0.215,0.071,0.357,0.214,0.357c0.143,0,0.5-0.286,0.786-0.644l0.215,0.214
				c-0.572,0.644-1.287,1.072-1.787,1.072c-0.429,0-0.644-0.285-0.572-0.929l0.643-3.073h-0.5l0.072-0.214
				c0.714-0.215,1.286-0.786,1.929-1.644h0.286c-0.214,0.428-0.357,0.857-0.5,1.429h0.858l-0.072,0.501h-0.857L286.346,299.223z"/>
		</g>
	</g>
	<g>
		<g>
			<path fill="#FFFFFF" d="M299.638,298.293c-0.071,0.501-0.286,1.215-0.571,1.858v0.071c-0.072,0-0.143-0.071-0.286-0.071
				c-0.071,0-0.214,0-0.286,0c-0.286,0-0.5,0-0.786,0.071c-0.286,0-0.572,0.072-0.929,0.072c-1.215,0-2.072-0.43-2.644-1.001
				c-0.5-0.571-0.786-1.286-0.786-1.93c0-0.929,0.357-1.715,1-2.286c0.643-0.572,1.572-0.858,2.644-0.858
				c1,0,1.572,0.286,1.787,0.286c0.071,0,0.143-0.071,0.143-0.143h0.357l0.071,1.93h-0.429c-0.072-0.501-0.357-0.858-0.643-1.145
				c-0.357-0.285-0.715-0.428-1.215-0.428c-1.215,0-2.072,1-2.072,2.43c0,1.5,0.857,2.572,2.215,2.572c0.858,0,1.572-0.5,2.001-1.43
				H299.638L299.638,298.293z"/>
		</g>
		<g>
			<path fill="#FFFFFF" d="M306.927,296.864v-1.144c0-0.715-0.143-0.93-0.786-0.93v-0.428h3.145v0.428
				c-0.643,0-0.786,0.215-0.786,0.787v3.216c0,0.644,0.071,0.929,0.786,0.929v0.429h-3.145v-0.429c0.572,0,0.786-0.143,0.786-0.929
				v-1.358h-2.787v1.358c0,0.571,0.071,0.857,0.786,0.857v0.429h-3.216v-0.429c0.643,0,0.786-0.144,0.786-0.929v-3.145
				c0-0.715-0.214-0.857-0.786-0.857v-0.43h3.216v0.43c-0.643,0.07-0.786,0.143-0.786,0.857v1.215h2.787V296.864z"/>
		</g>
	</g>
	<g>
		<g>
			<path fill="#FFFFFF" d="M317.719,300.151h-3.359v-0.429c0.644,0,0.857-0.071,0.857-0.285c0-0.144-0.071-0.357-0.214-0.715
				l-0.214-0.572h-2.073l-0.144,0.5c-0.143,0.357-0.214,0.644-0.214,0.715c0,0.286,0.286,0.357,0.786,0.357v0.429h-2.357v-0.429
				c0.714,0,0.785-0.143,1.071-1.144l1.429-4.145l-0.07-0.215h1.643l1.716,4.431c0.356,0.857,0.571,1.072,1.071,1.072v0.429H317.719
				z M313.717,295.363l-0.787,2.215h1.645L313.717,295.363z"/>
		</g>
		<g>
			<path fill="#FFFFFF" d="M320.148,295.936c0-1.001-0.072-1.072-0.857-1.145v-0.428c0.5,0,1.215-0.072,1.857-0.072
				c0.644,0,1.144-0.071,1.287-0.071c1.572,0,2.572,0.644,2.572,1.786c0,0.787-0.572,1.787-2.287,1.787
				c-0.285,0-0.715-0.071-1-0.071v1.215c0,0.571,0.143,0.715,1.072,0.715v0.429h-3.431v-0.429c0.644,0,0.857-0.214,0.857-0.929
				v-2.787H320.148z M321.721,297.222c0.143,0.071,0.285,0.071,0.429,0.071c0.786,0,1.215-0.5,1.215-1.357
				c0-0.787-0.429-1.287-1.144-1.287c-0.215,0-0.357,0-0.5,0.072V297.222z"/>
		</g>
	</g>
	<g>
		<g>
			<path fill="#FFFFFF" d="M332.297,294.363l0.072,1.357h-0.43c-0.07-0.643-0.214-0.786-0.643-0.786h-1.858v2.001h1.215
				c0.644,0,0.858-0.143,0.858-0.715h0.428v1.93h-0.428c0-0.5-0.144-0.643-0.858-0.643h-1.215v1.5c0,0.5,0.071,0.5,0.571,0.5h1.072
				c0.787,0,1.001-0.357,1.144-1h0.429l-0.143,1.572h-5.646v-0.429c0.858,0,1.001-0.214,1.001-0.857v-3.216
				c0-0.787-0.286-0.857-0.929-0.857v-0.43h5.359V294.363z"/>
		</g>
		<g>
			<path fill="#FFFFFF" d="M338.371,294.363v0.428c-0.785,0-0.928,0.144-0.928,0.858v3.216c0,0.572,0.07,0.643,0.714,0.643h0.715
				c0.571,0,0.786,0,1.572-1.071h0.429l-0.715,1.715h-5.146v-0.429c0.786,0,0.929-0.215,0.929-0.929v-3.145
				c0-0.644-0.07-0.858-0.929-0.858v-0.428H338.371z"/>
		</g>
	</g>
	<g>
		<g>
			<path fill="#FFFFFF" d="M351.521,296.864v-1.144c0-0.715-0.143-0.93-0.787-0.93v-0.428h3.145v0.428
				c-0.714,0-0.785,0.215-0.785,0.787v3.216c0,0.644,0.071,0.929,0.785,0.929v0.429h-3.145v-0.429c0.572,0,0.787-0.143,0.787-0.929
				v-1.358h-2.787v1.358c0,0.571,0.071,0.857,0.785,0.857v0.429h-3.215v-0.429c0.643,0,0.785-0.144,0.785-0.929v-3.145
				c0-0.715-0.214-0.857-0.785-0.857v-0.43h3.215v0.43c-0.643,0.07-0.785,0.143-0.785,0.857v1.215h2.787V296.864z"/>
		</g>
		<g>
			<path fill="#FFFFFF" d="M356.381,300.151v-0.429c0.643,0,0.786-0.215,0.786-0.857v-3.216c0-0.644-0.144-0.858-0.786-0.858v-0.428
				h3.216v0.428c-0.715,0-0.857,0.215-0.857,0.858v3.144c0,0.572,0.071,0.858,0.857,0.858v0.429h-3.216V300.151z"/>
		</g>
	</g>
	<g>
		<g>
			<path fill="#FFFFFF" d="M365.171,294.363v0.428c-0.786,0-0.929,0.144-0.929,0.858v3.216c0,0.572,0.071,0.643,0.715,0.643h0.715
				c0.571,0,0.785,0,1.572-1.071h0.428l-0.715,1.715h-5.145v-0.429c0.785,0,0.929-0.215,0.929-0.929v-3.145
				c0-0.644-0.071-0.858-0.929-0.858v-0.428H365.171z"/>
		</g>
		<g>
			<path fill="#FFFFFF" d="M372.104,294.363v0.428c-0.787,0-0.93,0.144-0.93,0.858v3.216c0,0.572,0.072,0.643,0.715,0.643h0.715
				c0.571,0,0.786,0,1.572-1.071h0.429l-0.715,1.715h-5.146v-0.429c0.786,0,0.93-0.215,0.93-0.929v-3.145
				c0-0.644-0.072-0.858-0.93-0.858v-0.428H372.104z"/>
		</g>
	</g>
</g>
</svg>
